<svg xmlns="http://www.w3.org/2000/svg" viewBox="0 0 269.26 451.75"><defs><style>.cls-1{font-size:112.54px;font-family:BebasNeueBold, Bebas Neue;font-weight:700;}.cls-1,.cls-12{fill:#fff;}.cls-2{fill:#3c2a34;}.cls-14,.cls-3,.cls-9{fill:#4f3129;}.cls-4{fill:#fff9ef;}.cls-5{fill:#a95e27;}.cls-6{fill:#f7b119;}.cls-7{fill:#5e4b45;}.cls-8{fill:#f48981;}.cls-9{opacity:0.2;}.cls-10{fill:#e83e27;}.cls-11{fill:none;stroke:#b32d2f;stroke-miterlimit:10;}.cls-12,.cls-14{opacity:0.1;}.cls-13{fill:#ee5552;}.cls-15{font-size:106.45px;fill:#ff3d54;}.cls-15,.cls-17{font-family:FranklinGothic-Demi, Franklin Gothic Demi;}.cls-16{letter-spacing:-0.02em;}.cls-17{font-size:29.97px;fill:#353535;}.cls-18{letter-spacing:0.01em;}.cls-19{letter-spacing:0em;}.cls-20{letter-spacing:0em;}.cls-21{letter-spacing:0.01em;}</style></defs><title>error</title><g id="Слой_2" data-name="Слой 2"><g id="OBJECT"><text class="cls-1" transform="translate(67.78 132.62)">404</text><ellipse class="cls-2" cx="134.63" cy="429.23" rx="132.49" ry="20.86"/><path class="cls-3" d="M177.37,190.48s34.89,3.36,52.38,82.77c15.32,69.55,43.88,89.33,25.21,96.14-51.25,18.71-49.68-74.6-55.27-117.34S177.37,190.48,177.37,190.48Z"/><path class="cls-3" d="M98.33,191.76s-35,2-55.47,80.73C24.93,341.41-4.37,360.1,14,367.62,64.53,388.25,66.5,295,73.69,252.45S98.33,191.76,98.33,191.76Z"/><path class="cls-4" d="M34.32,442.86s2.45-2.58,35.2-189.66C76.73,212,89.74,182,130.38,181.33c60.21-.93,72,38.94,74.93,71.87C214.63,357.44,235,442.85,235,442.85S129.7,460.9,34.32,442.86Z"/><path class="cls-5" d="M60,307.34s35.71,42.57,32.44,142.75c0,0-21.9,0-58.11-7.23C34.32,442.86,53.26,343.94,60,307.34Z"/><path class="cls-5" d="M211.27,307.34s-36.64,41.89-33.38,142.07A298.52,298.52,0,0,0,235,442.85S220.63,364,211.27,307.34Z"/><path class="cls-5" d="M130.38,181.33,133,249.81s-7.72,1.36-13.42-4-14.5-5.47-23.13,5.33c-8.3,10.39,0,19.66-30.07,19.67C66.42,270.84,68.25,177.81,130.38,181.33Z"/><path class="cls-5" d="M140.52,181.58v68.23s7.72,1.36,13.42-4,22.49-5,22.49,8.81c0,16.71,14.53,16.19,30.7,16.19C207.14,270.84,210.31,175,140.52,181.58Z"/><path class="cls-2" d="M148.94,245.42c0,6.94-5.63,11.09-12.56,11.09s-12.57-4.15-12.57-11.09,5.63-8.35,12.57-8.35S148.94,238.48,148.94,245.42Z"/><ellipse class="cls-6" cx="106.79" cy="220.54" rx="18.85" ry="17.99" transform="translate(-3.66 1.81) rotate(-0.95)"/><ellipse class="cls-2" cx="106.81" cy="218.4" rx="16.27" ry="15.82" transform="translate(-3.62 1.81) rotate(-0.95)"/><ellipse class="cls-6" cx="167.89" cy="220.47" rx="18.85" ry="17.99" transform="translate(-3.65 2.83) rotate(-0.95)"/><ellipse class="cls-2" cx="167.91" cy="218.4" rx="16.27" ry="15.82" transform="translate(-3.61 2.82) rotate(-0.95)"/><polygon class="cls-2" points="136.38 269.84 135.78 250.22 138.92 247.98 138.92 269.84 136.38 269.84"/><path class="cls-7" d="M130.17,246.78s6-5.43,6.21,9.72C136.38,256.51,135.07,246.77,130.17,246.78Z"/><path class="cls-7" d="M146.18,244.4s-7.64-3.1-7.25,11.91C138.93,256.31,140,246.29,146.18,244.4Z"/><ellipse class="cls-8" cx="87.94" cy="242.2" rx="9.62" ry="5.67"/><ellipse class="cls-8" cx="190.97" cy="244.14" rx="9.62" ry="5.67"/><path class="cls-8" d="M123.81,268s-10,61.37,12.57,61.4C161.32,329.43,151,268,151,268S132.7,271.28,123.81,268Z"/><path class="cls-4" d="M113.09,192.77s-10.42-13.9-16.6,6.2C96.5,199,102.82,188.33,113.09,192.77Z"/><path class="cls-4" d="M177.37,200.73s-1.68-17.29-17.4-3.33C160,197.39,170.89,191.59,177.37,200.73Z"/><circle class="cls-4" cx="116.68" cy="214.55" r="2.94"/><circle class="cls-4" cx="179.38" cy="214.55" r="2.94"/><path class="cls-9" d="M48.25,369.19s87.44,26.36,172.38-5.16l-1.41-9.78s-94,24.53-167.68-2Z"/><path class="cls-10" d="M53.72,341.43s92.33,25.69,163,0l3.16,18.45s-63.22,35.28-169.74.77Z"/><path class="cls-11" d="M53.26,343.94s95.18,28.52,163.92,0"/><path class="cls-11" d="M50.55,358.61s82.72,31.82,168.94-1.17"/><path class="cls-12" d="M56.81,342.23s80.42,44.6,162.41,13.55l-2.47-14.35S165.78,366.77,56.81,342.23Z"/><path class="cls-13" d="M122.26,281.16a83,83,0,0,0,29.45-8.38l-.47-4.79s-11.66,4.35-27.42-1Z"/><path class="cls-2" d="M112.19,245.52s-.66,21.62,25.36,23.05,22.4-24.63,22.4-24.63,9.94,27.24-22.4,26.89C107.34,270.5,112.19,245.52,112.19,245.52Z"/><path class="cls-10" d="M135.78,272.78s-1.47,26.56.6,39.14C136.38,311.92,138.23,291,135.78,272.78Z"/><path class="cls-14" d="M61.51,298.69s26.43,82.16,154.39,36.17c0,0,15.37,87.9,19.1,108,0,0-104.09,20-200.68,0C34.32,442.86,50.17,360.65,61.51,298.69Z"/><path class="cls-4" d="M161.6,383.22a6.5,6.5,0,0,0-12.87-1.85s0,.06,0,.09H124a6.5,6.5,0,1,0-8.24,7.11,6.51,6.51,0,1,0,8.93,2.73l24.18.28a6.5,6.5,0,1,0,8.58-3.21A6.5,6.5,0,0,0,161.6,383.22Z"/><polygon class="cls-4" points="135.22 375.83 134.66 352.22 138.37 352.22 137.84 375.83 135.22 375.83"/><path class="cls-4" d="M136.38,374.17c-2.29,0-4.15,2.15-4.15,4.81s1.86,4.81,4.15,4.81,4.15-2.15,4.15-4.81S138.67,374.17,136.38,374.17Zm-.1,7.44a3,3,0,1,1,2.36-2.89A2.67,2.67,0,0,1,136.28,381.62Z"/></g><g id="DESIGNED_BY_FREEPIK" data-name="DESIGNED BY FREEPIK"><text class="cls-15" transform="translate(36.81 88.72)"><tspan class="cls-16">У</tspan><tspan x="54.11" y="0">пс)</tspan></text><text class="cls-17" transform="translate(0 140.81)">Ч<tspan class="cls-18" x="18.87" y="0">т</tspan><tspan class="cls-19" x="30.84" y="0">о</tspan><tspan class="cls-20" x="46.88" y="0">-</tspan><tspan class="cls-18" x="54.47" y="0">т</tspan><tspan class="cls-19" x="66.45" y="0">о пошло не </tspan><tspan class="cls-21" x="224.57" y="0">т</tspan><tspan x="236.63" y="0">ак</tspan></text></g></g></svg>