<svg version="1.1" id="el_S0jMcenKr" xmlns="http://www.w3.org/2000/svg" xmlns:xlink="http://www.w3.org/1999/xlink" x="0px" y="0px" viewBox="0 0 164 182" style="enable-background:new 0 0 164 182;" xml:space="preserve"><style>@-webkit-keyframes kf_el_3o0vPZb4Ay_an_vwt8zNIvS{8.77%{-webkit-transform: translate(82.03171157836914px, 99.69999694824219px) rotate(0deg) translate(-82.03171157836914px, -99.69999694824219px);transform: translate(82.03171157836914px, 99.69999694824219px) rotate(0deg) translate(-82.03171157836914px, -99.69999694824219px);}47.37%{-webkit-transform: translate(82.03171157836914px, 99.69999694824219px) rotate(-420deg) translate(-82.03171157836914px, -99.69999694824219px);transform: translate(82.03171157836914px, 99.69999694824219px) rotate(-420deg) translate(-82.03171157836914px, -99.69999694824219px);}61.40%{-webkit-transform: translate(82.03171157836914px, 99.69999694824219px) rotate(-320deg) translate(-82.03171157836914px, -99.69999694824219px);transform: translate(82.03171157836914px, 99.69999694824219px) rotate(-320deg) translate(-82.03171157836914px, -99.69999694824219px);}70.18%{-webkit-transform: translate(82.03171157836914px, 99.69999694824219px) rotate(-360deg) translate(-82.03171157836914px, -99.69999694824219px);transform: translate(82.03171157836914px, 99.69999694824219px) rotate(-360deg) translate(-82.03171157836914px, -99.69999694824219px);}0%{-webkit-transform: translate(82.03171157836914px, 99.69999694824219px) rotate(0deg) translate(-82.03171157836914px, -99.69999694824219px);transform: translate(82.03171157836914px, 99.69999694824219px) rotate(0deg) translate(-82.03171157836914px, -99.69999694824219px);}100%{-webkit-transform: translate(82.03171157836914px, 99.69999694824219px) rotate(-360deg) translate(-82.03171157836914px, -99.69999694824219px);transform: translate(82.03171157836914px, 99.69999694824219px) rotate(-360deg) translate(-82.03171157836914px, -99.69999694824219px);}}@keyframes kf_el_3o0vPZb4Ay_an_vwt8zNIvS{8.77%{-webkit-transform: translate(82.03171157836914px, 99.69999694824219px) rotate(0deg) translate(-82.03171157836914px, -99.69999694824219px);transform: translate(82.03171157836914px, 99.69999694824219px) rotate(0deg) translate(-82.03171157836914px, -99.69999694824219px);}47.37%{-webkit-transform: translate(82.03171157836914px, 99.69999694824219px) rotate(-420deg) translate(-82.03171157836914px, -99.69999694824219px);transform: translate(82.03171157836914px, 99.69999694824219px) rotate(-420deg) translate(-82.03171157836914px, -99.69999694824219px);}61.40%{-webkit-transform: translate(82.03171157836914px, 99.69999694824219px) rotate(-320deg) translate(-82.03171157836914px, -99.69999694824219px);transform: translate(82.03171157836914px, 99.69999694824219px) rotate(-320deg) translate(-82.03171157836914px, -99.69999694824219px);}70.18%{-webkit-transform: translate(82.03171157836914px, 99.69999694824219px) rotate(-360deg) translate(-82.03171157836914px, -99.69999694824219px);transform: translate(82.03171157836914px, 99.69999694824219px) rotate(-360deg) translate(-82.03171157836914px, -99.69999694824219px);}0%{-webkit-transform: translate(82.03171157836914px, 99.69999694824219px) rotate(0deg) translate(-82.03171157836914px, -99.69999694824219px);transform: translate(82.03171157836914px, 99.69999694824219px) rotate(0deg) translate(-82.03171157836914px, -99.69999694824219px);}100%{-webkit-transform: translate(82.03171157836914px, 99.69999694824219px) rotate(-360deg) translate(-82.03171157836914px, -99.69999694824219px);transform: translate(82.03171157836914px, 99.69999694824219px) rotate(-360deg) translate(-82.03171157836914px, -99.69999694824219px);}}#el_S0jMcenKr *{-webkit-animation-duration: 1.9s;animation-duration: 1.9s;-webkit-animation-iteration-count: infinite;animation-iteration-count: infinite;-webkit-animation-timing-function: cubic-bezier(0, 0, 1, 1);animation-timing-function: cubic-bezier(0, 0, 1, 1);}#el_2QSa1h9Xl1{fill: #252525;}#el_Ui7FAsSEDF{fill: #252525;}#el_9nbpleh12J{fill: none;stroke: #252525;stroke-width: 5.389;stroke-miterlimit: 10;}#el_q6uuN1HgJC{fill: none;stroke: #252525;stroke-width: 5.389;stroke-miterlimit: 10;}#el_088OT1Xpio{fill: none;stroke: #252525;stroke-width: 5.389;stroke-miterlimit: 10;}#el_NQngk-IdoZ{fill: none;stroke: #252525;stroke-width: 5.389;stroke-miterlimit: 10;}#el_NatU-4ia5T{fill: none;stroke: #252525;stroke-width: 5.389;stroke-miterlimit: 10;}#el_vt82y8U2ZA{fill: none;stroke: #252525;stroke-width: 5.389;stroke-miterlimit: 10;}#el_QkXETNJJmF{fill: none;stroke: #252525;stroke-width: 5.389;stroke-miterlimit: 10;}#el_y71nhttSK7{fill: none;stroke: #252525;stroke-width: 5.389;stroke-miterlimit: 10;}#el_sY8pq-kClZ{fill: none;stroke: #252525;stroke-width: 5.389;stroke-miterlimit: 10;}#el_IGU2ATwwpzk{fill: none;stroke: #252525;stroke-width: 5.389;stroke-miterlimit: 10;}#el_cUPLl3vJR0q{fill: none;stroke: #252525;stroke-width: 5.389;stroke-miterlimit: 10;}#el_3b--TvL1GXE{fill: none;stroke: #252525;stroke-width: 5.389;stroke-miterlimit: 10;}#el_aGAb21SkWDn{fill: none;stroke: #252525;stroke-width: 5.389;stroke-miterlimit: 10;}#el_oekbiEKqAvp{fill: none;stroke: #252525;stroke-width: 5.389;stroke-miterlimit: 10;}#el_wZM5MvGrWdD{fill: none;stroke: #252525;stroke-width: 5.389;stroke-miterlimit: 10;}#el_bjIBF6r8EOE{fill: none;stroke: #252525;stroke-width: 5.389;stroke-miterlimit: 10;}#el_sgHP0egIlFa{fill: none;stroke: #252525;stroke-width: 5.389;stroke-miterlimit: 10;}#el_0YAVqE5vbP8{fill: none;stroke: #252525;stroke-width: 5.389;stroke-miterlimit: 10;}#el_eCHeOzgqy6C{fill: none;stroke: #252525;stroke-width: 5.389;stroke-miterlimit: 10;}#el_hnXWwJ8Xxu2{fill: none;stroke: #252525;stroke-width: 5.389;stroke-miterlimit: 10;}#el_PHOFh7gVE0r{fill: none;stroke: #252525;stroke-width: 5.389;stroke-miterlimit: 10;}#el_Iror15Yacls{fill: none;stroke: #252525;stroke-width: 5.389;stroke-miterlimit: 10;}#el_J3UGWHRW2Fq{fill: none;stroke: #252525;stroke-width: 5.389;stroke-miterlimit: 10;}#el_9Kq8xdUrXyu{fill: none;stroke: #252525;stroke-width: 5.389;stroke-miterlimit: 10;}#el_EhW0gSGq3Kh{fill: none;stroke: #252525;stroke-width: 5.389;stroke-miterlimit: 10;}#el_sGDrHIcLmRv{fill: none;stroke: #252525;stroke-width: 5.389;stroke-miterlimit: 10;}#el_8P2ISRltnUB{fill: none;stroke: #252525;stroke-width: 5.389;stroke-miterlimit: 10;}#el_4rHs0hZ7bVg{fill: none;stroke: #252525;stroke-width: 5.271;stroke-miterlimit: 10;}#el_JZQq_Puslpi{fill: #252525;stroke: #252525;stroke-width: 5.352;stroke-miterlimit: 10;-webkit-transform: matrix(0.9981, -6.149487e-02, 6.149487e-02, 0.9981, -8.3071, 5.7527);transform: matrix(0.9981, -6.149487e-02, 6.149487e-02, 0.9981, -8.3071, 5.7527);}#el_iet6YAzsRTZ{fill: #D4143D;-webkit-transform: matrix(0.9981, -6.149487e-02, 6.149487e-02, 0.9981, -8.3, 5.8156);transform: matrix(0.9981, -6.149487e-02, 6.149487e-02, 0.9981, -8.3, 5.8156);}#el_dZ_3xTUmzUI{fill: #252525;}#el_bibEKFDQx_P{fill: #252525;}#el_sD0WjeR_89n{fill: none;stroke: #252525;stroke-width: 6.2925;stroke-miterlimit: 10;}#el_Kl01Dp3e2RM{fill: #252525;}#el_xmlhtvqFvl2{fill: none;stroke: #252525;stroke-width: 5.7402;stroke-miterlimit: 10;}#el_cV1G-GDLtMk{fill: #252525;}#el_ZGSR4qvMSin{fill: none;stroke: #252525;stroke-width: 4.1913;stroke-miterlimit: 10;}#el_YdXabH3kHTo{fill: #252525;}#el_XPsqCbCIMPQ{fill: #252525;}#el_LoqyUOcmVGL{fill: none;stroke: #252525;stroke-width: 9.6254;stroke-miterlimit: 10;}#el_3o0vPZb4Ay_an_vwt8zNIvS{-webkit-animation-fill-mode: backwards;animation-fill-mode: backwards;-webkit-transform: translate(82.03171157836914px, 99.69999694824219px) rotate(0deg) translate(-82.03171157836914px, -99.69999694824219px);transform: translate(82.03171157836914px, 99.69999694824219px) rotate(0deg) translate(-82.03171157836914px, -99.69999694824219px);-webkit-animation-name: kf_el_3o0vPZb4Ay_an_vwt8zNIvS;animation-name: kf_el_3o0vPZb4Ay_an_vwt8zNIvS;-webkit-animation-timing-function: cubic-bezier(0.42, 0, 0.58, 1);animation-timing-function: cubic-bezier(0.42, 0, 0.58, 1);}</style>

<g id="el_3o0vPZb4Ay_an_vwt8zNIvS" data-animator-group="true" data-animator-type="1"><g id="el_3o0vPZb4Ay">
	<g id="el_n7-jpYlSRe">
		<g id="el_eYpX9HMInp">
			<g id="el_SeRZiorm_c">
				<path d="M89.7,173.9C71.2,175,55.2,159.3,54,140.2c-1.2-19.1,16-35.7,34.5-36.9l0.9-0.1c-13.5,0.8-29-4.6-37.3-13.9&#10;&#9;&#9;&#9;&#9;&#9;c-0.6-0.7-1.2-1.4-1.8-2.2c-4.8-6.3-7.8-13.9-8.3-22.4c-0.6-10,2.4-19.4,7.9-26.9c-0.3-1.6-0.5-3.3-0.6-5c0-0.4,0-0.8-0.1-1.2&#10;&#9;&#9;&#9;&#9;&#9;C23,44.2,5.4,72.5,7.4,104.2c2.5,41.2,36.9,72.6,76.8,70.1" id="el_2QSa1h9Xl1"/>
			</g>
		</g>
		<path d="M84.4,77.9c-3.8,0.2-7.1-2.7-7.3-6.5c-0.2-3.1,1.6-5.8,4.3-6.8c-1-0.4-2.1-0.5-3.3-0.5&#10;&#9;&#9;&#9;c-4.6,0.3-8.2,4.3-7.9,8.9s4.3,8.2,8.9,7.9c2.5-0.2,4.6-1.4,6-3.1C85,77.9,84.7,77.9,84.4,77.9z" id="el_Ui7FAsSEDF"/>
		<path d="M63.1,27.3c4.5-1.2,9.2-1.9,14.1-2.2c1.7-0.1,3.3-0.1,5-0.1" id="el_9nbpleh12J"/>
		<path d="M82.2,24.9c4.1,0,8.2,0.4,12.1,1l0,0c0.9,0.2,1.8,0.3,2.7,0.5" id="el_q6uuN1HgJC"/>
		<path d="M63.1,27.3c-4.2,1.1-8.3,2.5-12.2,4.3" id="el_088OT1Xpio"/>
		<path d="M94.3,26C94.3,26,94.3,26,94.3,26" id="el_NQngk-IdoZ"/>
		<path d="M135,47.1c-3.5-3.6-7.4-6.8-11.6-9.6l-4.7-2.9c-6.6-3.8-13.9-6.6-21.6-8.2" id="el_NatU-4ia5T"/>
		<path d="M50.7,31.7c0.1,0,0.2-0.1,0.2-0.1" id="el_vt82y8U2ZA"/>
		<path d="M127.3,49.1c0.8,2.5,1.4,5.1,1.8,7.7" id="el_QkXETNJJmF"/>
		<path d="M122.8,39.9c1.9,2.8,3.4,5.9,4.5,9.2" id="el_y71nhttSK7"/>
		<path d="M118.6,34.6c1.5,1.7,2.9,3.4,4.2,5.3" id="el_sY8pq-kClZ"/>
		<path d="M51.8,37.3c-0.1,0.2-0.3,0.4-0.4,0.5" id="el_IGU2ATwwpzk"/>
		<path d="M51.8,37.3c3.1-3.9,6.9-7.3,11.3-10" id="el_cUPLl3vJR0q"/>
		<path d="M96.9,25.7c0-0.1-0.1-0.2-0.1-0.3" id="el_3b--TvL1GXE"/>
		<path d="M97.1,26.5c-0.1-0.3-0.1-0.5-0.2-0.8" id="el_aGAb21SkWDn"/>
		<path d="M51.8,37.3c-0.5-1.6-0.8-3.3-0.9-5c0-0.2,0-0.4,0-0.7" id="el_oekbiEKqAvp"/>
		<path d="M129,56.8c0.4,9-4.7,17-12.4,20.7" id="el_wZM5MvGrWdD"/>
		<path d="M129,56.8c0-0.1,0-0.3,0-0.4c-0.2-2.6-0.8-5.1-1.7-7.3" id="el_bjIBF6r8EOE"/>
		<path d="M87.4,67.3C87.4,67.2,87.4,67.2,87.4,67.3" id="el_sgHP0egIlFa"/>
		<path d="M87.4,67.3c-0.1,0-0.1,0-0.2,0" id="el_0YAVqE5vbP8"/>
		<path d="M87.3,67.2c-1.8-0.3-3.7-0.4-5.6-0.4" id="el_eCHeOzgqy6C"/>
		<path d="M71.9,63.8c0.1,0.4,0.2,0.8,0.3,1.2" id="el_hnXWwJ8Xxu2"/>
		<path d="M94.3,26C94.3,26,94.3,26,94.3,26" id="el_PHOFh7gVE0r"/>
		<path d="M87.4,67.2c0,0-0.1,0-0.1,0" id="el_Iror15Yacls"/>
		<path d="M123.3,37.5c-0.2,0.8-0.3,1.6-0.6,2.4" id="el_J3UGWHRW2Fq"/>
		<path d="M72.3,64c-0.1-0.1-0.3-0.1-0.4-0.2" id="el_9Kq8xdUrXyu"/>
		<path d="M116.7,77.5c-2.5,1.2-5.2,1.9-8.1,2.1c-0.2,0-0.4,0-0.6,0c-2.3-3-5-5.6-8.2-7.6c-1-0.7-2.1-1.3-3.2-1.8&#10;&#9;&#9;&#9;c-2.8-1.4-5.9-2.5-9.1-3l-0.2,0c-1.9,0-3.8-0.1-5.6-0.4c-3.3-0.5-6.4-1.5-9.4-2.8l-0.4-0.2c-1.2-0.6-2.3-1.2-3.5-1.8&#10;&#9;&#9;&#9;c-0.9-0.5-1.8-1.1-2.6-1.8C58.5,54.9,53.3,47,51.4,37.8" id="el_EhW0gSGq3Kh"/>
		<path d="M94.3,26C94.3,26,94.3,26,94.3,26" id="el_sGDrHIcLmRv"/>
		<path d="M72.3,64c-0.1,0.3-0.1,0.7-0.2,1" id="el_8P2ISRltnUB"/>
		<path d="M91,103.2l1-0.1c-13.9,0.9-30-4.5-38.5-13.9c-0.6-0.7-1.3-1.4-1.9-2.2c-4.9-6.2-8-13.9-8.6-22.3&#10;&#9;&#9;&#9;c-0.6-10,2.5-19.4,8.3-26.9c-0.3-1.6-0.5-3.3-0.7-5c0-0.4,0-0.8-0.1-1.2C23.4,44.2,5.3,72.5,7.2,104.2c2.5,41.2,38,72.5,79.2,70&#10;&#9;&#9;&#9;s72.5-38,70-79.2c-1.2-18.8-9.1-35.5-21.4-47.9" id="el_4rHs0hZ7bVg"/>
		
			<ellipse cx="89.3" cy="137.8" rx="34.6" ry="34.6" id="el_JZQq_Puslpi"/>
		
			<ellipse cx="90.3" cy="137.8" rx="11.3" ry="11.3" id="el_iet6YAzsRTZ"/>
		<path d="M106.3,81.9c1.6,1.9,1.8,2.6,1.8,2.6s13.7-1.2,20.5-14.5s-7.8,4.1-7.8,4.1l-11.8,6.5L106.3,81.9z" id="el_dZ_3xTUmzUI"/>
		<g id="el_PG4OQhMW-VQ">
			<g id="el_tYWoM615mAg">
				<path d="M113.4,102.2c0,0,0-0.1,0-0.1c-0.2-4.4-1.1-8-2.8-11.9c4.8-1,8.6-2.8,11.3-4.6&#10;&#9;&#9;&#9;&#9;&#9;C120.2,93,118.1,96.9,113.4,102.2z" id="el_bibEKFDQx_P"/>
			</g>
		</g>
	</g>
	<circle cx="82.2" cy="99.7" r="74.8" id="el_sD0WjeR_89n"/>
</g></g>
<g id="el_vSzPQggkWw1">
	<path d="M79.5,21.6c-5.4-3.1-9.9-7.5-13.3-12.7c-7.5,4.1-12.6,12-12.9,21" id="el_Kl01Dp3e2RM"/>
	<path d="M86.8,25c-2.6-0.9-5.1-2-7.5-3.3C73.9,18.5,69.4,14.2,66,9c-7.5,4.1-12.6,12-12.9,21" id="el_xmlhtvqFvl2"/>
	<path d="M105.7,25.4c5-1.4,9.5-4.2,13-7.9c1.7,3.7,2.7,7.8,2.7,12.2c0,0.8,0,1.6-0.1,2.5c-0.1,1.6-0.4,3.2-0.8,4.7" id="el_cV1G-GDLtMk"/>
	<path d="M98.7,26.2c0.6,0,1.3,0,2-0.1c1.4-0.1,2.7-0.4,3.7-0.6c0.5-0.1,0.9-0.2,1.4-0.4c5-1.4,9.5-4.2,13-7.9&#10;&#9;&#9;c1.7,3.7,2.7,7.8,2.7,12.2c0,0.8,0,1.6-0.1,2.5c-0.1,1.6-0.4,3.2-0.8,4.7" id="el_ZGSR4qvMSin"/>
	<path d="M74.5,15c-3.6-3.6-7.2-10.2-7.2-10.2c-12,5.4-15.2,11.1-17,24L74.5,15z" id="el_YdXabH3kHTo"/>
	<path d="M119.7,13.6c0,0,6.4,7.3,5.7,22.9l-7.9-4.3l1.8-19L119.7,13.6z" id="el_XPsqCbCIMPQ"/>
	<circle cx="82" cy="99.7" r="74.8" id="el_LoqyUOcmVGL"/>
</g>
</svg>